<?xml version="1.0" encoding="utf-8"?>
<!-- Generator: Adobe Illustrator 14.0.0, SVG Export Plug-In . SVG Version: 6.00 Build 43363)  -->
<!DOCTYPE svg PUBLIC "-//W3C//DTD SVG 1.1//EN" "http://www.w3.org/Graphics/SVG/1.1/DTD/svg11.dtd">
<svg version="1.1" id="Layer_1" xmlns="http://www.w3.org/2000/svg" xmlns:xlink="http://www.w3.org/1999/xlink" x="0px" y="0px"
	 width="156.667px" height="40px" viewBox="0 0 156.667 40" enable-background="new 0 0 156.667 40" xml:space="preserve">
<g>
	<path fill-rule="evenodd" clip-rule="evenodd" fill="#4D4D4F" d="M21.463,14.834h-0.04c-0.082-0.013-0.165-0.02-0.25-0.02h-0.98
		v-0.98c0-0.032-0.001-0.064-0.003-0.097c0.002-0.032,0.003-0.064,0.003-0.098c0-1.557-0.632-2.967-1.652-3.988S16.109,8,14.551,8
		h-2.642c-2.63,0-5.147,1.042-7.007,2.902C3.043,12.762,2,15.278,2,17.909v1.174v2.834v1.174c0,2.631,1.043,5.146,2.902,7.007
		C6.762,31.958,9.279,33,11.909,33h2.642h2.643c2.631,0,5.147-1.042,7.007-2.902c1.859-1.86,2.901-4.376,2.901-7.007v-2.616
		c0-1.558-0.631-2.968-1.651-3.988S23.021,14.834,21.463,14.834z M23.969,23.091c0,1.8-0.713,3.518-1.985,4.79
		s-2.99,1.984-4.79,1.984h-2.643h-2.642c-1.799,0-3.518-0.712-4.79-1.984c-1.272-1.272-1.984-2.99-1.984-4.79v-1.174v-2.834v-1.174
		c0-1.8,0.712-3.519,1.984-4.79c1.272-1.272,2.991-1.984,4.79-1.984h2.642c0.692,0,1.319,0.281,1.772,0.733
		c0.454,0.454,0.733,1.08,0.733,1.771c0,0.033,0.001,0.065,0.003,0.098c-0.002,0.032-0.003,0.064-0.003,0.097v0.98h-2.088
		c-0.079,0-0.157,0.006-0.233,0.018c-0.077-0.012-0.155-0.018-0.234-0.018h-2.591c-0.854,0-1.628,0.347-2.188,0.906
		c-0.56,0.561-0.906,1.334-0.906,2.188v5.182c0,0.854,0.346,1.628,0.906,2.188c0.56,0.561,1.333,0.907,2.188,0.907H14.5h2.591h0.002
		h0.003c0.854,0,1.628-0.347,2.188-0.907c0.557-0.558,0.903-1.327,0.906-2.177l0-0.011v-3.053v-0.901v-1.188h0.49h0.49h0.04
		c0.082,0.013,0.166,0.02,0.25,0.02c0.692,0,1.318,0.28,1.771,0.734c0.453,0.453,0.734,1.079,0.734,1.771V23.091z M17.057,17.949
		v1.188v0.901v3.013H14.5H11.95v-5.102H14.5c0.08,0,0.157-0.006,0.233-0.018c0.077,0.012,0.155,0.018,0.234,0.018h0.587H17.057z"/>
	<path fill-rule="evenodd" clip-rule="evenodd" fill="#4D4D4F" d="M152.006,8c-1.37,0-2.491,1.121-2.491,2.492v0.172v0.454v0.128
		v0.126v0.124v0.123v0.12v0.114l-0.001,5.017v0.236l-0.151-0.181c-0.635-0.759-1.361-1.412-2.235-1.884
		c-1.046-0.564-2.181-0.8-3.364-0.8c-0.898,0-1.792,0.146-2.641,0.441c-1.625,0.563-2.985,1.632-3.942,3.06
		c-1.15,1.715-1.608,3.765-1.608,5.81v0.068c0,2.196,0.538,4.385,1.876,6.158c1.108,1.47,2.665,2.503,4.455,2.934
		c0.609,0.146,1.233,0.219,1.86,0.219c2.412,0,4.191-1.019,5.596-2.916l0.155-0.21l0.001,0.036c0,0.011,0,0.021,0,0.03
		c0,0.002,0,0.004,0,0.006c0,0.018,0,0.034,0,0.051v0.172c0,1.371,1.121,2.492,2.491,2.492c1.371,0,2.492-1.121,2.492-2.492v-0.172
		c0-0.017,0-0.033,0-0.051c0-0.002,0-0.004,0-0.006c0-0.01,0-0.02,0-0.03V11.853v-0.735v-0.454v-0.172
		C154.498,9.121,153.377,8,152.006,8z M149.582,23.621c0,1.017-0.227,2.029-0.744,2.911c-0.452,0.771-1.106,1.398-1.916,1.784
		c-0.575,0.274-1.2,0.412-1.836,0.412c-0.62,0-1.229-0.131-1.793-0.39c-0.827-0.378-1.5-1.005-1.969-1.781
		c-0.533-0.886-0.769-1.908-0.769-2.937v-0.068c0-1.021,0.227-2.039,0.752-2.923c0.457-0.77,1.116-1.392,1.929-1.774
		c0.58-0.272,1.209-0.409,1.85-0.409c0.636,0,1.261,0.138,1.836,0.411c0.81,0.386,1.464,1.014,1.916,1.784
		c0.518,0.882,0.744,1.895,0.744,2.911V23.621z"/>
	<path fill-rule="evenodd" clip-rule="evenodd" fill="#4D4D4F" d="M104.364,15.543c-1.133-0.962-2.596-1.301-4.054-1.301
		c-2.453,0-4.329,1.009-5.905,2.854l-0.083,0.097l-0.059-0.113c-1.011-1.948-2.893-2.837-5.047-2.837
		c-1.141,0-2.197,0.269-3.169,0.873c-0.839,0.522-1.52,1.235-2.123,2.012l-0.153,0.197v-0.043l-0.001-0.02l0.001-0.016v-0.173
		c0-1.37-1.122-2.492-2.493-2.492c-1.37,0-2.491,1.122-2.491,2.492v0.173v0.02v0.016v0.73v0.004c-0.067,5.594,0,5.642,0,11.237
		v0.004v0.672v0.06v0.112c0,1.371,1.121,2.492,2.491,2.492c1.371,0,2.493-1.121,2.493-2.492v-0.112v-0.06v-0.676v-0.734v-5.983
		c0-1.174,0.276-2.465,1.27-3.205c0.562-0.419,1.244-0.579,1.937-0.579c0.678,0,1.346,0.152,1.891,0.569
		c0.974,0.743,1.216,2.062,1.216,3.215v5.997v0.141v0.143v0.146v0.146v0.734v0.021c0,0.006,0,0.011,0,0.017c0,0.017,0,0.032,0,0.049
		v0.172c0,1.371,1.121,2.492,2.491,2.492c1.371,0,2.493-1.121,2.493-2.492v-0.172c0-0.017-0.001-0.032-0.001-0.049
		c0-0.013,0.001-0.025,0.001-0.038v-0.734v-0.146v-0.146v-0.143v-0.141v-5.997c0-1.174,0.276-2.464,1.27-3.205
		c0.562-0.42,1.245-0.579,1.938-0.579c0.676,0,1.345,0.152,1.891,0.569c0.973,0.743,1.215,2.062,1.215,3.215v5.975v0.021v0.139
		v0.141v0.144v0.145v0.146v0.684v0.051v0.121c0,1.371,1.121,2.492,2.492,2.492c1.37,0,2.492-1.121,2.492-2.492v-0.121v-0.051v-0.684
		v-0.173V28.9v-0.169v-0.167V28.51v-7.67C106.365,18.901,105.903,16.851,104.364,15.543z"/>
	<path fill-rule="evenodd" clip-rule="evenodd" fill="#4D4D4F" d="M127.294,14.242c-1.136,0-2.186,0.267-3.151,0.873
		c-0.834,0.524-1.506,1.238-2.106,2.012l-0.154,0.197v-0.078v-0.173v-0.099c0-0.086-0.009-0.17-0.024-0.25
		c-0.172-1.207-1.215-2.144-2.468-2.144c-1.252,0-2.296,0.937-2.467,2.144c-0.017,0.081-0.025,0.164-0.025,0.25v0.099v0.173v0.305
		v0.004c-0.067,5.596,0,6.116,0,11.713v0.004v0.657v0.073v0.099c0,1.371,1.122,2.492,2.492,2.492c1.371,0,2.492-1.121,2.492-2.492
		v-0.099v-0.073v-0.661V29.12v-0.144v-0.143v-0.142v-0.139v-0.021v-5.997c0-1.172,0.292-2.426,1.273-3.169
		c0.589-0.445,1.308-0.615,2.035-0.615c0.711,0,1.413,0.162,1.983,0.603c0.965,0.745,1.225,2.027,1.225,3.182v5.896v0.021v0.139
		v0.141v0.143v0.145v0.147V29.9v0.014v0.015v0.172c0,1.371,1.121,2.492,2.492,2.492c1.37,0,2.492-1.121,2.492-2.492v-0.172v-0.015
		V29.9v-0.734v-0.173v-0.17v-0.168v-0.166v-0.059v-7.523c0-1.926-0.498-3.936-1.984-5.263
		C130.261,14.63,128.793,14.242,127.294,14.242z"/>
	<path fill-rule="evenodd" clip-rule="evenodd" fill="#4D4D4F" d="M111.563,14.581c-1.371,0-2.491,1.122-2.491,2.492v0.071v0.102
		v0.792v0.576v10.104v0.219v0.256v0.261v0.475v0.172v0.088c0,0.075,0.006,0.148,0.019,0.221c0.152,1.227,1.206,2.184,2.473,2.184
		s2.319-0.957,2.473-2.184c0.013-0.072,0.02-0.146,0.02-0.221v-0.088v-0.172v-0.475v-0.261v-0.256v-0.219V18.614v-0.576v-0.792
		v-0.102v-0.071C114.056,15.703,112.934,14.581,111.563,14.581z"/>
	<path fill-rule="evenodd" clip-rule="evenodd" fill="#4D4D4F" d="M111.563,8c-1.371,0-2.491,1.121-2.491,2.492v0.172
		c0,1.371,1.12,2.493,2.491,2.493c1.37,0,2.492-1.122,2.492-2.493v-0.172C114.056,9.121,112.934,8,111.563,8z"/>
	<path fill-rule="evenodd" clip-rule="evenodd" fill="#4D4D4F" d="M67.911,14.242c-5.263,0-8.904,4.257-8.904,9.379v0.068
		c0,5.482,3.965,9.311,9.413,9.311c2.698,0,5.103-0.876,6.944-2.875c0.259-0.28,0.094-0.663-0.156-0.884l-1.867-1.653
		c-0.304-0.269-0.576-0.258-0.886-0.004c-1.219,0.998-2.39,1.449-3.967,1.449c-2.387,0-4.02-1.287-4.528-3.63l-0.023-0.104h0.107
		h11.459c0.895,0,1.177-0.429,1.177-1.271c0-2.537-0.687-5.205-2.401-7.138C72.624,15.026,70.366,14.242,67.911,14.242z
		 M63.873,22.248l0.019-0.101c0.225-1.295,0.799-2.596,1.931-3.341c0.626-0.414,1.342-0.598,2.089-0.598
		c0.798,0,1.559,0.208,2.207,0.681c1.044,0.762,1.547,2.017,1.712,3.261l0.013,0.098H63.873z"/>
	<path fill-rule="evenodd" clip-rule="evenodd" fill="#4D4D4F" d="M50.732,14.462c-0.609-0.146-1.234-0.22-1.861-0.22
		c-2.412,0-4.191,1.019-5.596,2.917l-0.155,0.21v-0.262V11.56v-0.809c0-0.013,0-0.025-0.001-0.038
		c0.001-0.016,0.001-0.032,0.001-0.049v-0.172C43.12,9.121,41.998,8,40.628,8c-1.371,0-2.492,1.121-2.492,2.492v0.172
		c0,0.017,0,0.033,0,0.049c0,0.013,0,0.025,0,0.038v0.809v18.254v0.028v0.087v0.172c0,1.371,1.121,2.492,2.492,2.492
		c1.37,0,2.492-1.121,2.492-2.492v-0.033l0.151,0.182c0.636,0.758,1.361,1.412,2.235,1.884c1.047,0.563,2.182,0.799,3.364,0.799
		c0.898,0,1.792-0.146,2.641-0.44c1.625-0.564,2.985-1.633,3.942-3.06c1.15-1.716,1.609-3.765,1.609-5.811v-0.068
		c0-2.195-0.539-4.384-1.877-6.157C54.079,15.926,52.523,14.893,50.732,14.462z M52.079,23.621c0,1.022-0.228,2.04-0.753,2.923
		c-0.457,0.771-1.117,1.393-1.929,1.774c-0.58,0.273-1.209,0.41-1.849,0.41c-0.637,0-1.262-0.138-1.837-0.412
		c-0.809-0.386-1.463-1.013-1.916-1.784c-0.518-0.881-0.743-1.895-0.743-2.911v-0.068c0-1.017,0.226-2.029,0.743-2.911
		c0.453-0.771,1.107-1.398,1.916-1.784c0.575-0.273,1.2-0.411,1.837-0.411c0.62,0,1.229,0.13,1.793,0.389
		c0.826,0.379,1.5,1.006,1.968,1.781c0.534,0.886,0.77,1.908,0.77,2.937V23.621z"/>
</g>
</svg>
