<?xml version="1.0" encoding="utf-8"?>
<!-- Generator: Adobe Illustrator 14.0.0, SVG Export Plug-In . SVG Version: 6.00 Build 43363)  -->
<!DOCTYPE svg PUBLIC "-//W3C//DTD SVG 1.1//EN" "http://www.w3.org/Graphics/SVG/1.1/DTD/svg11.dtd">
<svg version="1.1" id="Layer_1" xmlns="http://www.w3.org/2000/svg" xmlns:xlink="http://www.w3.org/1999/xlink" x="0px" y="0px"
	 width="80.8632812px" height="75.9995117px" viewBox="0 0 80.8632812 75.9995117"
	 style="enable-background:new 0 0 80.8632812 75.9995117;" xml:space="preserve">
<g>
	<path style="fill:none;stroke:#231F20;stroke-linecap:round;stroke-linejoin:round;" d="M48.3554688,5.0712891
		c0,0,2.1894531-0.3120117,2.1894531,1.7407227c0,2.0537109-2.3867188,1.9428711-2.3867188,1.9428711
		s-3.1074219-0.2216797-3.1074219-3.21875s2.5527344-4.4399414,4.9394531-4.4399414
		c2.3857422,0,6.0488281,2.2753906,6.0488281,6.715332s-4.0507812,8.0717773-8.5185547,8.0717773"/>
	<path style="fill:none;stroke:#231F20;stroke-linecap:round;stroke-linejoin:round;" d="M32.5332031,5.0712891
		c0,0-2.1894531-0.3120117-2.1894531,1.7407227c0,2.0537109,2.3867188,1.9428711,2.3867188,1.9428711
		s3.1074219-0.2216797,3.1074219-3.21875s-2.5527344-4.4399414-4.9394531-4.4399414s-6.0488281,2.2753906-6.0488281,6.715332
		s4.0517578,8.0717773,8.5195312,8.0717773"/>
	<path style="fill:none;stroke:#231F20;stroke-linecap:round;stroke-linejoin:round;" d="M7.9580078,28.4111328
		c0,0-1.3662109,1.7412109,0.4160156,2.7646484c1.7763672,1.0263672,2.8720703-1.0996094,2.8720703-1.0996094
		s1.359375-2.8027344-1.2382812-4.2973633c-2.5976562-1.4970703-5.1230469-0.0039062-6.3134766,2.0634766
		c-1.1894531,2.0688477-1.046875,6.378418,2.7998047,8.5927734c3.8505859,2.2167969,9.0175781,0.5195312,11.2480469-3.3530273"/>
	<path style="fill:none;stroke:#231F20;stroke-linecap:round;stroke-linejoin:round;" d="M15.9150391,61.3520508
		c0,0,0.8291016,2.0537109,2.6044922,1.0195312c1.7753906-1.0263672,0.4824219-3.0380859,0.4824219-3.0380859
		S17.25,56.7592773,14.6591797,58.2641602c-2.5947266,1.5058594-2.5605469,4.4365234-1.3632812,6.5009766
		c1.1962891,2.0634766,5.0048828,4.0927734,8.8408203,1.8613281c3.84375-2.2294922,4.953125-7.5566406,2.7089844-11.421875"/>
	<path style="fill:none;stroke:#231F20;stroke-linecap:round;stroke-linejoin:round;" d="M48.4326172,70.8969727
		c0,0,2.1923828,0.3085938,2.1845703-1.7480469c-0.0029297-2.0498047-2.3925781-1.9326172-2.3925781-1.9326172
		s-3.1054688,0.2333984-3.0947266,3.2304688c0.0107422,3,2.5673828,4.4316406,4.9541016,4.4257812
		c2.3847656-0.0078125,6.0449219-2.296875,6.0234375-6.7324219C56.09375,63.6967773,52.0332031,60.074707,47.5625,60.0922852"/>
	<path style="fill:none;stroke:#231F20;stroke-linecap:round;stroke-linejoin:round;" d="M72.9345703,47.4838867
		c0,0,1.3583984-1.7480469-0.4267578-2.7675781c-1.7753906-1.0195312-2.8691406,1.109375-2.8691406,1.109375
		s-1.3476562,2.8066406,1.2558594,4.2949219c2.6054688,1.4882812,5.1230469-0.0136719,6.3056641-2.0839844
		c1.1865234-2.0712891,1.0302734-6.3828125-2.8271484-8.5800781c-3.8564453-2.2060547-9.0214844-0.4941406-11.2373047,3.3867188"/>
	<path style="fill:none;stroke:#231F20;stroke-linecap:round;stroke-linejoin:round;" d="M64.8701172,14.5683594
		c0,0-0.8330078-2.0517578-2.6083984-1.0131836c-1.7695312,1.0302734-0.4716797,3.0400391-0.4716797,3.0400391
		s1.7587891,2.5688477,4.3496094,1.0566406c2.5869141-1.5161133,2.5458984-4.4462891,1.3388672-6.5068359
		c-1.2001953-2.0605469-5.015625-4.0776367-8.8447266-1.8320312c-3.8369141,2.2431641-4.9287109,7.5727539-2.6748047,11.4296875"/>
	<path style="fill:none;stroke:#231F20;stroke-linecap:round;stroke-linejoin:round;" d="M72.9101562,28.4042969
		c0,0,1.3671875,1.7407227-0.4121094,2.7675781c-1.78125,1.0234375-2.8769531-1.0996094-2.8769531-1.0996094
		s-1.359375-2.8022461,1.2363281-4.2973633c2.59375-1.4985352,5.1220703-0.0102539,6.3154297,2.0571289
		c1.1923828,2.0673828,1.0498047,6.3789062-2.7919922,8.597168c-3.8466797,2.2167969-9.0195312,0.5214844-11.2519531-3.3457031"/>
	<path style="fill:none;stroke:#231F20;stroke-linecap:round;stroke-linejoin:round;" d="M64.9765625,61.3334961
		c0,0-0.828125,2.0546875-2.6044922,1.0273438c-1.7744141-1.0332031-0.4853516-3.0419922-0.4853516-3.0419922
		s1.7480469-2.5771484,4.3417969-1.078125c2.5957031,1.4980469,2.5683594,4.4326172,1.375,6.4990234
		c-1.1933594,2.0683594-5.0019531,4.0976562-8.8447266,1.8808594c-3.84375-2.2265625-4.9599609-7.5507812-2.7265625-11.421875"/>
	<path style="fill:none;stroke:#231F20;stroke-linecap:round;stroke-linejoin:round;" d="M32.4863281,70.9213867
		c0,0-2.1914062,0.3125-2.1875-1.7412109c0.0058594-2.0537109,2.3896484-1.9423828,2.3896484-1.9423828
		s3.1083984,0.2285156,3.1083984,3.2226562c0,2.9960938-2.5605469,4.4394531-4.9472656,4.4394531
		s-6.0488281-2.2861328-6.0488281-6.71875c0.0078125-4.4472656,4.0625-8.0751953,8.5332031-8.0751953"/>
	<path style="fill:none;stroke:#231F20;stroke-linecap:round;stroke-linejoin:round;" d="M7.9472656,47.5776367
		c0,0-1.3662109-1.7480469,0.4130859-2.7675781c1.7822266-1.0195312,2.8779297,1.0996094,2.8779297,1.0996094
		s1.3535156,2.8056641-1.2412109,4.2978516C7.4023438,51.7055664,4.875,50.2143555,3.6835938,48.1469727
		c-1.1953125-2.0673828-1.0429688-6.3828125,2.796875-8.5957031c3.8535156-2.2197266,9.0214844-0.5195312,11.2558594,3.3505859"/>
	<path style="fill:none;stroke:#231F20;stroke-linecap:round;stroke-linejoin:round;" d="M7.9716797,19.2265625
		c0,0,5.9492188-1.8388672,8.9667969-6.0805664c3.0136719-4.2353516,3.5537109-9.7431641,3.5537109-9.7431641v0.0141602
		c0,0,5.0410156,2.2885742,10.2197266,1.7998047S40.4589844,0.5,40.4589844,0.5h-0.0283203
		c0,0,4.5683594,4.2280273,9.7470703,4.7167969c5.1777344,0.4887695,10.2177734-1.7998047,10.2177734-1.7998047
		l-0.1708984-0.0800781c0,0,0.5664062,5.5009766,3.6044922,9.7290039c3.0380859,4.2231445,8.9912109,6.0336914,8.9912109,6.0336914
		l0.0898438,0.1547852c0,0-1.3808594,6.0698242,0.7871094,10.8007812c2.1611328,4.7280273,6.6660156,7.9501953,6.6660156,7.9501953
		l-0.0166016-0.1523438c0,0-4.4853516,3.2353516-6.6318359,7.9765625
		c-2.1435547,4.7421875-0.7431641,10.8046875-0.7431641,10.8046875l-0.0683594,0.125c0,0-5.9492188,1.8378906-8.9628906,6.0800781
		c-3.0175781,4.2353516-3.5517578,9.7470703-3.5517578,9.7470703l0.0898438-0.0732422c0,0-5.0429688-2.2675781-10.2226562-1.765625
		c-5.1777344,0.5097656-9.7314453,4.7490234-9.7314453,4.7490234l-0.1074219,0.0029297c0,0-4.5683594-4.2314453-9.7509766-4.7236328
		c-5.1738281-0.4921875-10.2148438,1.7958984-10.2148438,1.7958984l0.0771484,0.0253906
		c0,0-0.5517578-5.5058594-3.5732422-9.7402344c-3.0234375-4.2324219-8.9726562-6.0625-8.9726562-6.0625l-0.0390625-0.0664062
		c0,0,1.3808594-6.0703125-0.7792969-10.8046875C5.0019531,41.1958008,0.5,37.9770508,0.5,37.9770508l0.0146484,0.0419922
		c0,0,4.4990234-3.2260742,6.6591797-7.9570312c2.1582031-4.7324219,0.7734375-10.8007812,0.7734375-10.8007812
		L7.9716797,19.2265625z"/>
	<path style="fill:none;stroke:#231F20;stroke-linecap:round;stroke-linejoin:round;" d="M15.8974609,14.6513672
		c0,0,0.8320312-2.0566406,2.6044922-1.0234375c1.7763672,1.0336914,0.4863281,3.0424805,0.4863281,3.0424805
		s-1.7558594,2.5737305-4.3427734,1.0712891c-2.5947266-1.4985352-2.5673828-4.4321289-1.3740234-6.496582
		c1.1933594-2.0703125,5.0078125-4.0961914,8.8447266-1.8764648c3.8505859,2.2270508,4.9599609,7.5541992,2.7236328,11.4257812"/>
	<circle style="fill:none;stroke:#231F20;" cx="40.4306641" cy="37.9975586" r="23.1669922"/>
	
		<line style="fill:none;stroke:#231F20;stroke-linecap:round;stroke-linejoin:round;" x1="18.1835938" y1="33.09375" x2="63.2890625" y2="33.09375"/>
</g>
</svg>
