<?xml version="1.0" encoding="utf-8"?>
<!-- Generator: Adobe Illustrator 14.0.0, SVG Export Plug-In . SVG Version: 6.00 Build 43363)  -->
<!DOCTYPE svg PUBLIC "-//W3C//DTD SVG 1.1//EN" "http://www.w3.org/Graphics/SVG/1.1/DTD/svg11.dtd">
<svg version="1.1" id="Layer_1" xmlns="http://www.w3.org/2000/svg" xmlns:xlink="http://www.w3.org/1999/xlink" x="0px" y="0px"
	 width="40px" height="40px" viewBox="0 0 40 40" style="enable-background:new 0 0 40 40;" xml:space="preserve">
<g>
	<defs>
		<path id="SVGID_1_" d="M36.5,13.9238281c-1.5458984-1.5449219-3.6787109-2.5-6.0380859-2.5h-0.0605469
			c-0.1240234-0.0195312-0.2480469-0.0302734-0.3789062-0.0302734h-1.4833984v-1.484375
			c0-0.0488281-0.0029297-0.0966797-0.0048828-0.1455078c0.0029297-0.0488281,0.0048828-0.0976562,0.0048828-0.1474609
			c0-2.3583984-0.9560547-4.4931641-2.5009766-6.0380859c-1.5458984-1.5449219-3.6806641-2.5-6.0371094-2.5h-4
			c-3.9824219,0-7.7919922,1.5771484-10.6064453,4.3925781C2.578125,8.2871094,1,12.0957031,1,16.078125v1.7773438v4.2900391
			v1.7763672c0,3.9833984,1.578125,7.7910156,4.3945312,10.6074219c2.8144531,2.8164062,6.6240234,4.3925781,10.6064453,4.3925781h4
			H24c3.9824219,0,7.7919922-1.5761719,10.6074219-4.3925781C37.421875,31.7128906,39,27.9052734,39,23.921875v-3.9599609
			C39,17.6035156,38.0458984,15.4697266,36.5,13.9238281z M34.2539062,23.921875
			c0,2.7246094-1.0761719,5.3261719-3.0029297,7.2519531C29.3261719,33.0976562,26.7246094,34.1777344,24,34.1777344h-3.9990234h-4
			c-2.7236328,0-5.3261719-1.0800781-7.2519531-3.0039062c-1.9248047-1.9257812-3.0029297-4.5273438-3.0029297-7.2519531v-1.7763672
			v-4.2900391V16.078125c0-2.7246094,1.078125-5.3251953,3.0029297-7.2509766
			c1.9257812-1.9257812,4.5283203-3.0039062,7.2519531-3.0039062h4c1.046875,0,1.9951172,0.4248047,2.6826172,1.1103516
			c0.6855469,0.6865234,1.1103516,1.6347656,1.1103516,2.6826172c0,0.0498047,0.0009766,0.0986328,0.0039062,0.1474609
			C23.7949219,9.8125,23.7939453,9.8603516,23.7939453,9.9091797v1.484375h-3.1630859
			c-0.1191406,0-0.2373047,0.0087891-0.3525391,0.0263672c-0.1162109-0.0175781-0.2353516-0.0263672-0.3554688-0.0263672h-3.921875
			c-1.2939453,0-2.4648438,0.5244141-3.3125,1.3720703c-0.8476562,0.8486328-1.3730469,2.0185547-1.3730469,3.3125v7.84375
			c0,1.2939453,0.5253906,2.4648438,1.3730469,3.3125c0.8476562,0.8486328,2.0185547,1.3720703,3.3125,1.3720703h3.921875h3.921875
			h0.0048828h0.0048828c1.2929688,0,2.4648438-0.5234375,3.3125-1.3720703
			c0.8427734-0.8447266,1.3671875-2.0097656,1.3720703-3.296875v-0.015625v-4.6210938v-1.3642578v-1.7978516h0.7402344h0.7431641
			h0.0605469c0.1240234,0.0205078,0.2509766,0.0302734,0.3789062,0.0302734c1.0478516,0,1.9980469,0.4238281,2.6835938,1.1103516
			c0.6845703,0.6865234,1.1083984,1.6357422,1.1083984,2.6826172V23.921875z M23.7939453,16.1386719v1.7978516v1.3642578v4.5605469
			h-3.8710938h-3.8613281v-7.7226562h3.8613281c0.1201172,0,0.2382812-0.0078125,0.3535156-0.0263672
			c0.1162109,0.0185547,0.2353516,0.0263672,0.3544922,0.0263672h0.8886719H23.7939453z"/>
	</defs>
	<clipPath id="SVGID_2_">
		<use xlink:href="#SVGID_1_"  style="overflow:visible;"/>
	</clipPath>
	<g style="clip-path:url(#SVGID_2_);">
		<defs>
			<rect id="SVGID_3_" x="1" y="1.078125" width="38.6259766" height="37.8974609"/>
		</defs>
		<clipPath id="SVGID_4_">
			<use xlink:href="#SVGID_3_"  style="overflow:visible;"/>
		</clipPath>
		<rect x="-2.6435547" y="-2.5664062" style="clip-path:url(#SVGID_4_);fill:#4A4A4A;" width="45.2871094" height="45.1328125"/>
	</g>
</g>
</svg>
