<?xml version="1.0" encoding="utf-8"?>
<!-- Generator: Adobe Illustrator 14.0.0, SVG Export Plug-In . SVG Version: 6.00 Build 43363)  -->
<!DOCTYPE svg PUBLIC "-//W3C//DTD SVG 1.1//EN" "http://www.w3.org/Graphics/SVG/1.1/DTD/svg11.dtd">
<svg version="1.1" id="Layer_1" xmlns="http://www.w3.org/2000/svg" xmlns:xlink="http://www.w3.org/1999/xlink" x="0px" y="0px"
	 width="32px" height="32px" viewBox="0 0 32 32" style="enable-background:new 0 0 32 32;" xml:space="preserve">
<g style="enable-background:new    ;">
	<g>
		<g>
			<defs>
				<rect id="SVGID_1_" x="-479.9355469" y="-4128.0292969" width="1680" height="5130"/>
			</defs>
			<clipPath id="SVGID_2_">
				<use xlink:href="#SVGID_1_"  style="overflow:visible;"/>
			</clipPath>
		</g>
		<g>
			<defs>
				<rect id="SVGID_3_" x="-479.9355469" y="-4128.0292969" width="1680" height="5130"/>
			</defs>
			<clipPath id="SVGID_4_">
				<use xlink:href="#SVGID_3_"  style="overflow:visible;"/>
			</clipPath>
		</g>
		<g>
			<defs>
				<rect id="SVGID_5_" x="-479.9355469" y="-4128.0292969" width="1680" height="5130"/>
			</defs>
			<clipPath id="SVGID_6_">
				<use xlink:href="#SVGID_5_"  style="overflow:visible;"/>
			</clipPath>
		</g>
	</g>
</g>
<path style="fill-rule:evenodd;clip-rule:evenodd;fill:#CCCCCC;" d="M26.4238281,8.0078125
	c1.1552734-0.7294922,2.0419922-1.8867188,2.4580078-3.2636719c-1.0820312,0.6767578-2.2773438,1.1660156-3.5537109,1.4316406
	c-1.0175781-1.1484375-2.4726562-1.8642578-4.0830078-1.8642578c-3.0898438,0-5.59375,2.6425781-5.59375,5.9013672
	c0,0.4619141,0.046875,0.9130859,0.1425781,1.34375c-4.6484375-0.2460938-8.7705078-2.59375-11.5322266-6.1660156
	c-0.4814453,0.875-0.7568359,1.8876953-0.7568359,2.9677734c0,2.0458984,0.9873047,3.8525391,2.4892578,4.9130859
	c-0.9169922-0.0302734-1.7802734-0.2988281-2.5351562-0.7382812v0.0732422c0,2.8603516,1.9267578,5.2460938,4.4902344,5.7861328
	c-0.4707031,0.1386719-0.9638672,0.2070312-1.4765625,0.2070312c-0.3603516,0-0.7119141-0.0351562-1.0517578-0.1044922
	c0.7109375,2.34375,2.7773438,4.0517578,5.2265625,4.0976562c-1.9160156,1.5839844-4.328125,2.5263672-6.9492188,2.5263672
	c-0.4511719,0-0.8974609-0.0253906-1.3349609-0.0810547c2.4765625,1.6728516,5.4169922,2.6503906,8.5771484,2.6503906
	c10.2929688,0,15.9189453-8.9921875,15.9189453-16.7900391c0-0.2578125-0.0039062-0.5117188-0.0146484-0.7636719
	c1.0927734-0.8320312,2.0439453-1.8730469,2.7919922-3.0556641C28.6328125,7.5488281,27.5537109,7.8652344,26.4238281,8.0078125z"/>
</svg>
