<?xml version="1.0" encoding="utf-8"?>
<!-- Generator: Adobe Illustrator 14.0.0, SVG Export Plug-In . SVG Version: 6.00 Build 43363)  -->
<!DOCTYPE svg PUBLIC "-//W3C//DTD SVG 1.1//EN" "http://www.w3.org/Graphics/SVG/1.1/DTD/svg11.dtd">
<svg version="1.1" id="Layer_1" xmlns="http://www.w3.org/2000/svg" xmlns:xlink="http://www.w3.org/1999/xlink" x="0px" y="0px"
	 width="32px" height="32px" viewBox="0 0 32 32" style="enable-background:new 0 0 32 32;" xml:space="preserve">
<g style="enable-background:new    ;">
	<g>
		<g>
			<defs>
				<rect id="SVGID_1_" x="-479.9355469" y="-4128.0292969" width="1680" height="5130"/>
			</defs>
			<clipPath id="SVGID_2_">
				<use xlink:href="#SVGID_1_"  style="overflow:visible;"/>
			</clipPath>
		</g>
		<g>
			<defs>
				<rect id="SVGID_3_" x="-479.9355469" y="-4128.0292969" width="1680" height="5130"/>
			</defs>
			<clipPath id="SVGID_4_">
				<use xlink:href="#SVGID_3_"  style="overflow:visible;"/>
			</clipPath>
		</g>
		<g>
			<defs>
				<rect id="SVGID_5_" x="-479.9355469" y="-4128.0292969" width="1680" height="5130"/>
			</defs>
			<clipPath id="SVGID_6_">
				<use xlink:href="#SVGID_5_"  style="overflow:visible;"/>
			</clipPath>
		</g>
	</g>
</g>
<path style="fill-rule:evenodd;clip-rule:evenodd;fill:#A3A3A3;" d="M30.2861328,30.2851562h-6.3154297V20.2402344
	c0-2.6289062-0.9873047-4.4223633-3.1591797-4.4223633c-1.6621094,0-2.5859375,1.2094727-3.015625,2.3793945
	c-0.1611328,0.4160156-0.1357422,1-0.1357422,1.5859375v10.5019531h-6.2568359c0,0,0.0810547-17.7924805,0-19.409668h6.2568359
	v3.0458984c0.3691406-1.3320312,2.3681641-3.2324219,5.5585938-3.2324219c3.9580078,0,7.0673828,2.7929688,7.0673828,8.8032227
	V30.2851562z M5.0771484,8.4477539H5.0371094c-2.015625,0-3.3232422-1.4833984-3.3232422-3.3623047
	c0-1.9169922,1.3457031-3.3710938,3.4023438-3.3710938c2.0546875,0,3.3173828,1.4501953,3.3574219,3.3652344
	C8.4736328,6.9584961,7.1708984,8.4477539,5.0771484,8.4477539z M2.4345703,10.8754883h5.5693359v19.4077148H2.4345703V10.8754883z"
	/>
</svg>
