<?xml version="1.0" encoding="utf-8"?>
<!-- Generator: Adobe Illustrator 14.0.0, SVG Export Plug-In . SVG Version: 6.00 Build 43363)  -->
<!DOCTYPE svg PUBLIC "-//W3C//DTD SVG 1.1//EN" "http://www.w3.org/Graphics/SVG/1.1/DTD/svg11.dtd">
<svg version="1.1" id="Layer_1" xmlns="http://www.w3.org/2000/svg" xmlns:xlink="http://www.w3.org/1999/xlink" x="0px" y="0px"
	 width="40px" height="15px" viewBox="0 0 40 15" style="enable-background:new 0 0 40 15;" xml:space="preserve">
<path style="fill-rule:evenodd;clip-rule:evenodd;fill:#B2B2B2;" d="M29.0820312,12.3847656
	c-2.6933594,0-4.8847656-2.1914062-4.8847656-4.8857422c0-2.6933594,2.1914062-4.8847656,4.8847656-4.8847656
	s4.8847656,2.1914062,4.8847656,4.8847656C33.9667969,10.1933594,31.7753906,12.3847656,29.0820312,12.3847656z
	 M10.9179688,12.3847656c-2.6933594,0-4.8847656-2.1914062-4.8847656-4.8857422
	c0-2.6933594,2.1914062-4.8847656,4.8847656-4.8847656s4.8847656,2.1914062,4.8847656,4.8847656
	C15.8027344,10.1933594,13.6113281,12.3847656,10.9179688,12.3847656z M38.9921875,6.4912109h-3.0917969
	c-0.4902344-3.3271484-3.3564453-5.8925781-6.8183594-5.8925781c-3.2402344,0-5.9589844,2.2490234-6.6953125,5.2646484
	l-1.8789062-1.0957031c-0.3134766-0.1835938-0.7021484-0.1835938-1.015625,0l-1.8789062,1.0957031
	c-0.7363281-3.015625-3.4550781-5.2646484-6.6953125-5.2646484c-3.4619141,0-6.328125,2.5654297-6.8183594,5.8925781H1.0078125
	C0.4511719,6.4912109,0,6.9433594,0,7.4990234c0,0.5576172,0.4511719,1.0078125,1.0078125,1.0078125h3.0917969
	c0.4902344,3.328125,3.3564453,5.8935547,6.8183594,5.8935547c3.6035156,0,6.5664062-2.7783203,6.8691406-6.3046875L20,6.8046875
	l2.2128906,1.2910156c0.3027344,3.5263672,3.265625,6.3046875,6.8691406,6.3046875
	c3.4619141,0,6.328125-2.5654297,6.8183594-5.8935547h3.0917969C39.5488281,8.5068359,40,8.0566406,40,7.4990234
	C40,6.9433594,39.5488281,6.4912109,38.9921875,6.4912109z"/>
</svg>
